<svg xmlns="http://www.w3.org/2000/svg" width="24px" height="18px" viewBox="0 0 24 18" version="1.1">
    <g id="Page-1" stroke="none" stroke-width="1" fill="none" fill-rule="evenodd">
        <g id="Search-Filters->-Desktop->-Filter-Click" transform="translate(-1094.000000, -183.000000)" fill="currentColor">
            <g id="Group-7" transform="translate(1094.000000, 183.000000)">
                <path d="M21,0 C22.6568542,0 24,1.34314575 24,3 L24,15 C24,16.6568542 22.6568542,18 21,18 L3,18 C1.34314575,18 0,16.6568542 0,15 L0,3 C0,1.34314575 1.34314575,0 3,0 L21,0 Z M21,2 L3,2 C2.48716416,2 2.06449284,2.38604019 2.00672773,2.88337887 L2,3 L2,15 C2,15.5128358 2.38604019,15.9355072 2.88337887,15.9932723 L3,16 L21,16 C21.5128358,16 21.9355072,15.6139598 21.9932723,15.1166211 L22,15 L22,3 C22,2.48716416 21.6139598,2.06449284 21.1166211,2.00672773 L21,2 Z" id="Rectangle-Copy-28" fill-rule="nonzero"/>
                <path d="M5,4 L19,4 C19.5522847,4 20,4.44771525 20,5 L20,13 C20,13.5522847 19.5522847,14 19,14 L5,14 C4.44771525,14 4,13.5522847 4,13 L4,5 C4,4.44771525 4.44771525,4 5,4 Z" id="Rectangle-Copy-27"/>
            </g>
        </g>
    </g>
</svg>




