<svg height="512" viewBox="0 0 512 512" width="512" xmlns="http://www.w3.org/2000/svg"><g id="BULINE"><circle cx="256" cy="256" fill="#f55b4b" r="256"/></g><g id="Icons"><path d="m496.14 167.12h-480.29c36.15-97.58 130.01-167.12 240.15-167.12s204 69.54 240.14 167.12z" fill="#db1b1b"/><path d="m496.14 344.87h-480.29a256.53 256.53 0 0 1 0-177.75h480.29a253 253 0 0 1 8.91 29.41 257.31 257.31 0 0 1 -8.91 148.34z" fill="#3586cb"/><path d="m256 512a256.09 256.09 0 0 1 -240.15-167.13h480.29a252.21 252.21 0 0 1 -13.05 29.41 256 256 0 0 1 -227.09 137.72z" fill="#fff"/><path d="m289.5 2.17c-95.38 12.47-174.24 77.43-206.65 165h-67c36.15-97.63 130.01-167.17 240.15-167.17a259.05 259.05 0 0 1 33.5 2.17z" fill="#c11a1a"/><path d="m67 256a255.41 255.41 0 0 0 15.85 88.87h-67a256.53 256.53 0 0 1 0-177.75h67a252.91 252.91 0 0 0 -8.85 29.41 256.16 256.16 0 0 0 -7 59.47z" fill="#366fca"/><path d="m289.5 509.83a258.82 258.82 0 0 1 -33.5 2.17 256.09 256.09 0 0 1 -240.15-167.13h67a256.15 256.15 0 0 0 206.65 165z" fill="#e2e2e2"/><g fill="#4c9cd8"><circle cx="466.75" cy="272.3" r="18.07"/><circle cx="466.75" cy="234.66" r="12.8"/></g></g></svg>